<svg width="23" height="23" viewBox="0 0 23 23" fill="none" xmlns="http://www.w3.org/2000/svg">
<g id="instagram logo">
<path id="Vector" d="M11.4302 0C6.65977 0 5.26459 0.00492126 4.9934 0.0274184C4.01442 0.108795 3.40524 0.262936 2.74157 0.593363C2.23011 0.847335 1.82674 1.14173 1.42865 1.55441C0.703642 2.30702 0.264244 3.23292 0.105182 4.33352C0.0278481 4.86783 0.00535089 4.9768 0.000781152 7.70599C-0.00097644 8.61572 0.000781152 9.81299 0.000781152 11.4189C0.000781152 16.1855 0.00605393 17.5793 0.0289026 17.8499C0.107994 18.8025 0.25739 19.4019 0.573756 20.0575C1.17837 21.3124 2.33311 22.2545 3.69348 22.606C4.16452 22.7273 4.68476 22.794 5.35265 22.8257C5.63562 22.838 8.51983 22.8468 11.4058 22.8468C14.2918 22.8468 17.1777 22.8433 17.4537 22.8292C18.227 22.7928 18.6761 22.7325 19.1726 22.6042C19.8471 22.4312 20.4758 22.1131 21.0146 21.672C21.5535 21.2309 21.9895 20.6775 22.2923 20.0504C22.6025 19.4107 22.7598 18.7885 22.831 17.8856C22.8465 17.6888 22.853 14.5502 22.853 11.4159C22.853 8.28107 22.846 5.14834 22.8305 4.95149C22.7584 4.03403 22.6011 3.41711 22.2809 2.76504C22.0181 2.23126 21.7264 1.83264 21.3028 1.42506C20.547 0.703037 19.6225 0.263639 18.5207 0.104753C17.9869 0.0275942 17.8806 0.0047455 15.1493 0H11.4302Z" fill="url(#paint0_radial_1_257)"/>
<path id="Vector_2" d="M11.4302 0C6.65977 0 5.26459 0.00492126 4.9934 0.0274184C4.01442 0.108795 3.40524 0.262936 2.74157 0.593363C2.23011 0.847335 1.82674 1.14173 1.42865 1.55441C0.703642 2.30702 0.264244 3.23292 0.105182 4.33352C0.0278481 4.86783 0.00535089 4.9768 0.000781152 7.70599C-0.00097644 8.61572 0.000781152 9.81299 0.000781152 11.4189C0.000781152 16.1855 0.00605393 17.5793 0.0289026 17.8499C0.107994 18.8025 0.25739 19.4019 0.573756 20.0575C1.17837 21.3124 2.33311 22.2545 3.69348 22.606C4.16452 22.7273 4.68476 22.794 5.35265 22.8257C5.63562 22.838 8.51983 22.8468 11.4058 22.8468C14.2918 22.8468 17.1777 22.8433 17.4537 22.8292C18.227 22.7928 18.6761 22.7325 19.1726 22.6042C19.8471 22.4312 20.4758 22.1131 21.0146 21.672C21.5535 21.2309 21.9895 20.6775 22.2923 20.0504C22.6025 19.4107 22.7598 18.7885 22.831 17.8856C22.8465 17.6888 22.853 14.5502 22.853 11.4159C22.853 8.28107 22.846 5.14834 22.8305 4.95149C22.7584 4.03403 22.6011 3.41711 22.2809 2.76504C22.0181 2.23126 21.7264 1.83264 21.3028 1.42506C20.547 0.703037 19.6225 0.263639 18.5207 0.104753C17.9869 0.0275942 17.8806 0.0047455 15.1493 0H11.4302Z" fill="url(#paint1_radial_1_257)"/>
<path id="Vector_3" d="M11.4249 2.98792C9.13375 2.98792 8.84621 2.99793 7.94632 3.03889C7.04819 3.08001 6.43514 3.2222 5.89872 3.43083C5.34385 3.64631 4.87317 3.93455 4.40424 4.40366C3.93497 4.87258 3.64672 5.34326 3.43054 5.89796C3.22138 6.43455 3.07902 7.04778 3.03859 7.94556C2.99852 8.84544 2.98798 9.13316 2.98798 11.4244C2.98798 13.7156 2.99817 14.0022 3.03895 14.9021C3.08025 15.8002 3.22244 16.4133 3.43089 16.9497C3.64655 17.5046 3.93479 17.9753 4.40389 18.4442C4.87264 18.9135 5.34333 19.2024 5.89785 19.4179C6.43461 19.6265 7.04784 19.7687 7.94579 19.8098C8.84568 19.8508 9.13305 19.8608 11.4241 19.8608C13.7154 19.8608 14.0021 19.8508 14.902 19.8098C15.8001 19.7687 16.4139 19.6265 16.9506 19.4179C17.5053 19.2024 17.9753 18.9135 18.4441 18.4442C18.9133 17.9753 19.2016 17.5046 19.4178 16.9499C19.6252 16.4133 19.7675 15.8001 19.8097 14.9023C19.8501 14.0024 19.8607 13.7156 19.8607 11.4244C19.8607 9.13316 19.8501 8.84562 19.8097 7.94573C19.7675 7.0476 19.6252 6.43455 19.4178 5.89814C19.2016 5.34326 18.9133 4.87258 18.4441 4.40366C17.9748 3.93438 17.5055 3.64613 16.9501 3.43083C16.4123 3.2222 15.7989 3.08001 14.9008 3.03889C14.0009 2.99793 13.7144 2.98792 11.4225 2.98792H11.4249ZM10.6681 4.50823C10.8927 4.50788 11.1434 4.50823 11.4249 4.50823C13.6775 4.50823 13.9445 4.51632 14.834 4.55674C15.6565 4.59435 16.103 4.7318 16.4003 4.84727C16.794 5.00018 17.0747 5.18297 17.3698 5.47825C17.6651 5.77352 17.8479 6.05474 18.0012 6.44844C18.1166 6.74547 18.2542 7.1919 18.2917 8.01445C18.3321 8.9038 18.3409 9.17095 18.3409 11.4224C18.3409 13.6739 18.3321 13.9411 18.2917 14.8304C18.2541 15.653 18.1166 16.0994 18.0012 16.3964C17.8482 16.7901 17.6651 17.0704 17.3698 17.3655C17.0746 17.6608 16.7942 17.8436 16.4003 17.9965C16.1033 18.1125 15.6565 18.2496 14.834 18.2872C13.9446 18.3277 13.6775 18.3364 11.4249 18.3364C9.17224 18.3364 8.90526 18.3277 8.01592 18.2872C7.19337 18.2493 6.74694 18.1118 6.44938 17.9963C6.05568 17.8434 5.77446 17.6606 5.47919 17.3654C5.18391 17.0701 5.00112 16.7896 4.84786 16.3957C4.73239 16.0987 4.59477 15.6522 4.55733 14.8297C4.51691 13.9404 4.50882 13.6732 4.50882 11.4203C4.50882 9.16743 4.51691 8.90169 4.55733 8.01234C4.59494 7.18979 4.73239 6.74336 4.84786 6.44598C5.00077 6.05228 5.18391 5.77106 5.47919 5.47579C5.77446 5.18051 6.05568 4.99772 6.44938 4.84446C6.74676 4.72846 7.19337 4.59137 8.01592 4.55358C8.79418 4.51843 9.09578 4.50788 10.6681 4.50612V4.50823ZM15.9282 5.90903C15.728 5.90903 15.5323 5.96842 15.3658 6.07967C15.1993 6.19093 15.0695 6.34906 14.9929 6.53407C14.9163 6.71908 14.8963 6.92265 14.9354 7.11904C14.9744 7.31543 15.0709 7.49582 15.2125 7.63739C15.3541 7.77896 15.5346 7.87535 15.731 7.91437C15.9274 7.95339 16.1309 7.93329 16.3159 7.85662C16.5009 7.77994 16.659 7.65013 16.7702 7.4836C16.8814 7.31707 16.9407 7.1213 16.9406 6.92106C16.9406 6.36214 16.4872 5.90868 15.9282 5.90868V5.90903ZM11.4249 7.09189C9.03234 7.09189 7.09248 9.03175 7.09248 11.4244C7.09248 13.817 9.03234 15.7559 11.4249 15.7559C13.8176 15.7559 15.7569 13.817 15.7569 11.4244C15.7569 9.03175 13.8174 7.09189 11.4248 7.09189H11.4249ZM11.4249 8.61221C12.978 8.61221 14.2371 9.87117 14.2371 11.4244C14.2371 12.9774 12.978 14.2365 11.4249 14.2365C9.87176 14.2365 8.6128 12.9774 8.6128 11.4244C8.6128 9.87117 9.87176 8.61221 11.4249 8.61221Z" fill="white"/>
</g>
<defs>
<radialGradient id="paint0_radial_1_257" cx="0" cy="0" r="1" gradientUnits="userSpaceOnUse" gradientTransform="translate(6.07036 24.6065) rotate(-90) scale(22.6428 21.0654)">
<stop stop-color="#FFDD55"/>
<stop offset="0.1" stop-color="#FFDD55"/>
<stop offset="0.5" stop-color="#FF543E"/>
<stop offset="1" stop-color="#C837AB"/>
</radialGradient>
<radialGradient id="paint1_radial_1_257" cx="0" cy="0" r="1" gradientUnits="userSpaceOnUse" gradientTransform="translate(-3.828 1.64584) rotate(78.6776) scale(10.1215 41.7319)">
<stop stop-color="#3771C8"/>
<stop offset="0.128" stop-color="#3771C8"/>
<stop offset="1" stop-color="#6600FF" stop-opacity="0"/>
</radialGradient>
</defs>
</svg>
